<svg xmlns="http://www.w3.org/2000/svg" viewBox="0 0 397 397"><g fill="currentColor" fill-rule="nonzero"><path d="M198.469 396.48c-109.2 0-198.24-89.039-198.24-198.24C.229 89.039 89.268 0 198.469 0c109.2 0 198.24 89.039 198.24 198.24 0 109.201-89.04 198.24-198.24 198.24Zm0-368.48c-93.52 0-170.24 76.16-170.24 170.24 0 94.08 76.719 170.24 170.24 170.24 93.52 0 170.24-76.719 170.24-170.24 0-93.521-76.72-170.24-170.24-170.24Z"/><path d="M153.109 153.44c0 12.992-10.531 23.52-23.52 23.52-12.992 0-23.52-10.527-23.52-23.52 0-12.988 10.527-23.52 23.52-23.52 12.988 0 23.52 10.531 23.52 23.52M290.869 153.44c0 12.992-10.527 23.52-23.52 23.52-12.988 0-23.52-10.527-23.52-23.52 0-12.988 10.53-23.52 23.52-23.52 12.992 0 23.52 10.531 23.52 23.52"/><path d="M129.589 213.92c-33.602 0-60.48-27.441-60.48-60.48 0-33.602 27.44-60.48 60.48-60.48 33.602 0 60.48 27.441 60.48 60.48.558 33.602-26.883 60.48-60.48 60.48Zm0-92.961c-17.922 0-32.48 14.559-32.48 32.48s14.559 32.48 32.48 32.48c17.92 0 32.48-14.559 32.48-32.48 0-17.918-14.562-32.48-32.48-32.48ZM198.469 234.64c57.68 0 91.28 45.359 92.398 47.039 4.48 6.16 3.359 15.121-3.36 19.602-6.16 4.48-15.12 3.36-19.602-3.36-.558-.558-26.879-35.28-70-35.28-43.12 0-69.44 35.28-70 35.28-4.48 6.16-13.44 7.84-19.602 2.801-6.16-4.48-7.84-13.44-3.36-19.602 2.243-1.117 35.845-46.48 93.524-46.48h.002Z"/></g></svg>