<svg xmlns="http://www.w3.org/2000/svg" viewBox="0 0 480 360"><path fill="currentColor" fill-rule="nonzero" d="M25.423 347.027v-23.669h150.79v23.67c0 17.296-150.79 17.296-150.79 0Zm0-44.966 150.79.004v-49.612H25.424v49.608Zm0-80.51v9.606h150.79v-4.215.004a70.242 70.242 0 0 1 13.387-43.27c14.186-17.668 29.322-38.676 34.732-65.26 3.844-18.874 5.073-38.218-1.793-56.15a21.52 21.52 0 0 0-10.2-12.867 21.532 21.532 0 0 0-16.306-1.938 74.151 74.151 0 0 0-12.262 3.606s.55-10.758.595-17.141c.17-26.2-9.822-30.688-34.915-33.176C116.728-2.495 45.005 4.274 19.794 32.125.925 52.965-2.67 87.62 2.794 116.962c5.45 29.28 20.623 69.92 22.636 104.59l-.007-.002Zm429.214 125.474v-23.669h-150.79v23.67c0 17.296 150.79 17.296 150.79 0Zm0-94.573h-150.79v49.612h150.79v-49.612Zm0-30.903c2.013-34.67 17.186-75.31 22.634-104.59 5.462-29.343 1.868-63.997-17.004-84.837C435.049 4.272 363.33-2.498 330.609.747c-25.088 2.488-35.084 6.981-34.914 33.176.04 6.38.594 17.14.594 17.14h.004a74.18 74.18 0 0 0-12.262-3.605 21.533 21.533 0 0 0-16.305 1.938 21.551 21.551 0 0 0-10.204 12.867c-6.866 17.932-5.637 37.276-1.794 56.15 5.41 26.585 20.546 47.589 34.736 65.26a70.238 70.238 0 0 1 13.386 43.27v4.214l150.791-.003-.004-9.605Z"/></svg>