<svg xmlns="http://www.w3.org/2000/svg" viewBox="0 0 495 494"><path fill="currentColor" fill-rule="nonzero" d="M430.259 214.961a76.957 76.957 0 0 0 57.539-45.266 76.95 76.95 0 0 0-6.391-72.934 76.955 76.955 0 0 0-64.535-34.57h-1.398a76.999 76.999 0 0 0-152.153 8.625l-11.758 130.37c-1.567 0-3.024-.39-4.594-.39-1.567 0-2.406 0-3.586.39l-11.59-130.31a77 77 0 0 0-152.32-8.679H77.96a76.961 76.961 0 0 0-64.535 34.57 76.95 76.95 0 0 0 51.152 118.2l137.37 24.023a41.368 41.368 0 0 0-.617 8.008h-123.2A77.002 77.002 0 0 0 3.55 343.24a76.987 76.987 0 0 0 44.117 51.484c0 2.07-.336 4.145-.336 6.274a76.953 76.953 0 0 0 32.863 62.844 76.946 76.946 0 0 0 118.336-42.906l33.602-119.05v99.116c0 49.56 14.895 80.305 17.473 84.727h.282-.004a15.175 15.175 0 0 0 12.992 7.672c4.086 0 8.004-1.621 10.89-4.508a15.411 15.411 0 0 0 4.512-10.89 14.623 14.623 0 0 0-2.297-7.56c-4.257-7.39-13.328-26.991-13.328-69.327v-99.234l33.602 119.05v.003a76.947 76.947 0 0 0 118.336 42.907 76.952 76.952 0 0 0 32.863-62.844c0-2.129 0-4.2-.335-6.273a76.988 76.988 0 0 0 44.098-51.414 76.995 76.995 0 0 0-13.582-66.36A77.002 77.002 0 0 0 416.875 247h-123.2v-.504c-.079-2.5-.36-4.993-.84-7.45l137.43-24.023-.006-.06Z"/></svg>