<svg xmlns="http://www.w3.org/2000/svg" viewBox="0 0 360 360"><path fill="currentColor" fill-rule="nonzero" d="M181.08 0C280.24 0 360 79.76 360 181.08 360 280.24 280.24 360 181.08 360 79.76 360 0 280.24 0 181.08 0 79.76 79.76 0 181.08 0Zm28.025 153.051 105.628-32.336C291.019 68.978 239.28 34.49 181.083 34.49c-60.359 0-112.095 34.49-133.65 86.226l103.474 32.336c15.09-15.09 43.114-15.09 58.203 0h-.005Zm114.248 0L219.88 185.388c-2.155 12.935-10.778 23.713-23.713 30.179v109.941c86.226-10.778 144.43-90.54 127.183-172.453l.004-.004ZM163.835 325.504V215.563c-12.935-6.467-21.556-17.247-21.556-30.18L36.651 153.049C21.561 234.967 77.608 314.726 163.835 325.5v.004Z"/></svg>