<svg xmlns="http://www.w3.org/2000/svg" viewBox="0 0 470 320"><g fill="currentColor" fill-rule="nonzero"><path d="M196.05 281.04c-3.07-10.93-11.02-39.246-15.301-46.145l-.336.336a3.93 3.93 0 0 1-.312.312 3.156 3.156 0 0 1-.493.45c0 .132-.222.222-.359.359l-.648.54-.426.358-.805.606-.469.379-.984.695-.559.38c-.359.269-.785.515-1.187.784l-.606.403-1.41.875-.672.378-1.703.985-.672.379-2.105 1.097-.606.336-2.375 1.165-.699.406-2.644 1.23-.786.36a89.74 89.74 0 0 1-2.843 1.23l-.965.426-3.16 1.3-1.075.427c-1.03.425-2.238.851-3.293 1.277l-1.343.515-4.145 1.5-.941.36-5.578 1.902-4.278 1.41-.761.27-4.028 1.23h-.203l-3.672 1.188-.379.113-3.515 1.121h-.27l-3.316 1.008-3.047.918h-.27c-1.925.559-3.695 1.074-5.308 1.5h-.246l-2.176.875-2.063.516h-.156l-1.86.425h-.398c-1.14.246-2.238.45-3.136.582h-.223l-1.32.18h-2.442l-.004-.004c-.441.028-.882.028-1.32 0a7.086 7.086 0 0 1-1.144-.199l-.762-.246c.7 3.71 1.676 7.363 2.914 10.93 1.746 5.422 3.336 10.84 4.883 16.082 2.98 10.19 6.719 22.895 8.96 24.012 3.833.984 10.349 2.664 51.677-11.492l7.707-2.645c33.242-11.355 33.242-11.355 31.023-19.02-.493-1-.852-2.523-1.368-4.359h.001Z"/><path d="m90.72 261.24.918.563v1.164a1.16 1.16 0 0 0 0 .402c2.8 2.441 32.277-7.414 43.391-11.2 37.141-12.41 42.965-21.21 43.008-21.3l.203-.293h-.004c.18-.223.39-.418.63-.582l.202-.133h-.004c.176-.113.364-.203.563-.27h.133c.492-11 .492-15.21.425-16.776-.46-7.72-.328-15.465.403-23.164-6.54-23.992-12.098-70-12.273-71.523-.875-4.48-8.578-59.54-9.676-71.926 0-.965-.18-2.04-.27-3.203-.804-10.191-2.238-27.238-10.574-33.98a14.298 14.298 0 0 0-11.355-2.575 16.433 16.433 0 0 0-11.629 6.27c-5.421 7.437-3.359 19.44-2.398 25.199.164.836.277 1.531.336 2.082.426 2.933 1.367 13.664 2.238 24.438 1.637 21.816 1.5 21.84-.785 22.398l.008.004a2.372 2.372 0 0 1-2.777-1.746c-.27-.852-.965-3.563-2.399-9.141-4.187-16.016-13.707-53.422-18.434-61.664C94.956 4.202 84.088-3.212 74.39 1.964c-8.31 4.48-7.548 24.641 1.991 52.617 3.047 8.96 5.778 17.922 7.684 25 2.934 10.93 2.754 12.141.648 12.926-2.101.781-3.378-1.727-4.273-4.191l-.875-2.239c-19.71-49.754-30.129-57.234-34.629-57.234-8.355 0-13.82 1.973-16.195 5.668-2.375 3.696-1.926 10.438 1.95 19.195 2.89 6.54 6.718 14.805 10.55 22.781 16.22 34.473 15.68 34.766 13.441 36.355-1.949 1.278-3.742-.718-4.48-1.457-1.59-1.77-3.606-4.636-5.957-7.93-6.72-9.632-17.16-24.19-26.633-25.132h-.004a9.894 9.894 0 0 0-8 3.113c-14 13.215-9.79 20.16-.516 35.125a304.008 304.008 0 0 1 2.239 3.672c10.102 16.598 22.668 37.297 31.988 56.449 4.48 8.96 13.688 24.305 22.668 39.09 9.453 15.68 18.39 30.285 20.766 36.309 1.14 2.89 2.375 5.914 3.718 8.96l.249.199Zm-8.043-57.008a8.69 8.69 0 0 1-4.48-5.152l-2.688-8.223v.004c-1.484-4.59 1.035-9.512 5.621-11l59.246-19.22h.004a8.663 8.663 0 0 1 6.676.493 8.646 8.646 0 0 1 4.32 5.11l2.735 8.199a8.634 8.634 0 0 1-.516 6.718 8.788 8.788 0 0 1-5.086 4.481l-59.246 19.219a8.648 8.648 0 0 1-6.586-.629ZM219.81 85.64a12.181 12.181 0 0 0-8.96-3.043 28.176 28.176 0 0 0-18.77 9.945 155.955 155.955 0 0 0-12.364 17.605l-1.164 1.813-.984 1.523-.875 1.301h-.004a37.57 37.57 0 0 1-2.754 3.809c-.145.168-.301.324-.469.468 1.031 8.223 5.332 41.418 10.461 63.234l.379-.695.18-.336.359-.648.336-.606.312-.582.426-.828.313-.559c.156-.312.336-.628.492-.964l.36-.63c.179-.378.378-.761.581-1.14l.246-.45.829-1.589v-.203c.671-1.277 1.367-2.598 2.082-4.008l.132-.27c.313-.605.649-1.21.965-1.835l.203-.403c.313-.582.606-1.164.895-1.746l.312-.582.852-1.656.312-.605.942-1.86.203-.379 1.098-2.238v-.246c.828-1.59 1.636-3.203 2.464-4.84l.223-.426.965-1.949.36-.695c.292-.582.581-1.14.85-1.727.134-.246.247-.492.38-.719.27-.558.515-1.097.785-1.613l.426-.851.804-1.614.004.004c.106-.246.223-.484.356-.719.293-.628.605-1.23.894-1.835 0-.157.157-.336.246-.516.762-1.523 1.5-3.047 2.239-4.48l.379-.786.672-1.41c.132-.246.246-.516.378-.785.133-.27.426-.875.63-1.32.202-.45.245-.54.378-.786s.38-.828.582-1.23l.36-.805c.203-.402.379-.804.558-1.187l.336-.696c.18-.425.38-.828.559-1.253l.27-.56c.245-.581.515-1.14.761-1.679 7-15.684 12.914-30.71 6.215-37.12ZM379.05 267.91a7.552 7.552 0 0 1-1.145.203h-.113.004c-.441.024-.883.024-1.324 0h-2.465l-1.254-.156h-.312l-1.39-.246h-.157l-1.477-.293h-.312l-1.77-.38h-.293l-1.812-.448h-.27l-2.238-.559-.402-.113-5.106-1.434-.469-.156-2.91-.852h-.203l-3-.918-.516-.156-3.359-1.074-.559-.18-3.359-1.074-.324-.52-3.875-1.277-.852-.27-4.234-1.41-5.555-1.902-1.812-.672a90.176 90.176 0 0 1-3.27-1.187l-2.039-.785-2.621-1.008-1.836-.738-2.375-.985-1.523-.648-2.239-1.008c-.449-.18-.828-.379-1.23-.559l-2.238-1.03-1.075-.516-1.992-.985c-.336-.156-.605-.312-.918-.492l-1.793-.941-.828-.47-1.566-.874-2.086-1.277-.54-.36-1.277-.828-.449-.312-1.074-.762-.36-.27-.94-.738-.27-.223-.785-.672-.223-.203-.649-.582-.132-.156-.493-.492c-4.277 6.855-12.23 35.19-15.3 46.145-.516 1.836-.965 3.36-1.278 4.48-2.238 7.66-2.238 7.66 31.023 19.02l7.707 2.645c41.352 14.156 47.848 12.477 51.723 11.469 2.238-1.098 5.957-13.797 8.961-23.992 1.547-5.242 3.137-10.664 4.883-16.082l-.008-.008a76.714 76.714 0 0 0 2.914-10.934l-.762.246-.179-.001ZM278.3 167.32l3.18 6.113c.113.203.222.38.312.582l.63 1.188.448.851.36.672.582 1.098.18.336c.222.402.425.828.648 1.21.695 1.302 1.3 2.419 1.812 3.337 5.13-21.816 9.43-55.016 10.461-63.234l-.246-.246-.246-.27-.312-.36-.336-.425-.469-.649-.293-.402-.402-.558h-.004a3.607 3.607 0 0 1-.313-.493c-.148-.21-.304-.433-.468-.672l-.336-.515-.559-.828-.336-.54-.738-1.14-.246-.379c-.36-.558-.72-1.14-1.121-1.746l-.004-.004a156.469 156.469 0 0 0-12.363-17.605 28.176 28.176 0 0 0-18.883-10.035h-3.364l-.718.156h-.426l-.738.247-.426.156-.738.336-.403.203a7.902 7.902 0 0 0-.762.492l-.335.203v-.004a9.838 9.838 0 0 0-1.075.899c-6.718 6.406-.785 21.438 6.407 37.609.246.539.515 1.12.761 1.703.098.164.18.336.246.511l.606 1.301.27.606c.202.426.425.875.628 1.344h-.004c.086.199.184.394.293.582.223.492.47 1.007.696 1.523l.246.492.804 1.703.204.426c1.41 2.957 2.957 6.113 4.48 9.34 4.031 8.2 8.469 16.91 12.297 24.305l.113.581Z"/><path d="M460.41 81.43a9.886 9.886 0 0 0-7.996-3.113c-9.477.941-19.801 15.5-26.633 25.133-2.238 3.293-4.367 6.16-5.957 7.93-.695.738-2.488 2.734-4.48 1.456-2.399-1.59-2.825-1.882 13.44-36.355 3.762-7.972 7.66-16.238 10.551-22.78 3.875-8.758 4.48-15.212 1.95-19.196-2.532-3.988-7.84-5.601-16.195-5.668-4.48 0-14.918 7.48-34.54 57.277l-.874 2.239c-.985 2.465-1.993 5.039-4.368 4.168-2.375-.875-2.238-1.992.649-12.926 1.902-7.145 4.637-16.016 7.683-25 9.516-27.996 10.277-48.156 1.97-52.637-9.7-5.153-20.563 2.238-26.274 12.344-4.66 8.242-14.18 45.652-18.234 61.645-1.433 5.578-2.238 8.289-2.398 9.16a2.373 2.373 0 0 1-2.777 1.723c-2.239-.54-2.418-.559-.786-22.398.805-10.773 1.746-21.504 2.239-24.461 0-.54.18-1.23.336-2.063.964-5.758 3.023-17.762-2.399-25.199h.004a16.416 16.416 0 0 0-11.762-6.27 14.305 14.305 0 0 0-11.535 2.665c-8.445 6.718-9.765 23.789-10.574 33.98 0 1.164-.18 2.238-.27 3.203-1.097 12.363-8.804 67.402-9.675 71.926-.156 1.433-5.735 47.465-12.273 71.5v.004c.73 7.703.867 15.457.402 23.184 0 1.547 0 5.758.426 16.754h.137c.195.066.382.156.558.27l.203.132c.235.164.446.36.625.582l.223.336s5.848 8.848 42.984 21.258c11.199 3.719 40.566 13.574 43.41 11.199h.004a3.066 3.066 0 0 0 0-.379V261.8l.965-.648.27-.18c1.343-3.07 2.573-6.094 3.718-8.96 2.375-6.028 11.312-20.743 20.766-36.31 8.961-14.785 18.277-30.082 22.668-39.09 9.32-19.152 21.887-39.848 31.988-56.449.762-1.277 1.523-2.508 2.238-3.672 9.383-14.988 13.594-21.84-.406-35.059l-.001-.001Zm-65.992 109.49-2.617 8.152c-1.485 4.59-6.41 7.11-11 5.625l-59.312-19.062a8.787 8.787 0 0 1-5.086-4.347 8.633 8.633 0 0 1-.516-6.72l2.664-8.222v.004a8.646 8.646 0 0 1 11-5.602l59.246 19.22a8.738 8.738 0 0 1 5.625 10.952h-.004Z"/></g></svg>