<svg xmlns="http://www.w3.org/2000/svg" viewBox="0 0 533 532"><path fill="currentColor" fill-rule="nonzero" d="M505.589 27.012c-43.121-43.117-122.64-33.598-177.52 21.281-38.641 38.641-54.88 89.602-45.36 131.6 3.36 15.68-1.68 31.922-13.44 42.559l-252 224c-21.281 18.48-21.84 50.961-2.239 71.121 20.16 20.16 52.641 19.039 71.121-2.238l224-252.56c10.641-11.762 26.88-16.801 42.56-13.441 42 9.52 92.96-6.72 131.6-45.36 54.874-54.323 64.394-133.84 21.276-176.96l.002-.002Zm-30.242 53.762c-6.16 6.16-16.801 6.16-22.961 0-12.32-12.32-47.04-6.16-72.238 19.602-6.16 6.16-16.801 6.16-22.961 0-6.72-6.719-6.16-16.801 0-22.961 37.52-37.52 91.84-46.48 118.72-19.602 5.601 6.16 5.601 16.242-.559 22.961h-.001Z"/></svg>