<svg xmlns="http://www.w3.org/2000/svg" viewBox="0 0 700 390"><g fill="currentColor" fill-rule="nonzero"><path d="M700 389.92H545.59v-78.234H700zM362.35 311.68h156.47v78.234H362.35zM181.18 311.68h156.47v78.234H181.18zM0 311.68h156.47v78.234H0zM609.41 79.04H452.94V.806h156.47zM700 79.04h-63.824V.806H700zM636.18 208.74h63.824v78.234H636.18zM247.06 79.04H90.59V.806h156.47zM0 .8h65.883v78.234H0zM0 181.98v-78.234h156.47v78.234zM181.18 181.98v-78.234h156.47v78.234zM518.82 181.98H362.35v-78.234h156.47zM700 103.74v78.234H545.59V103.74zM428.23.8v78.234H271.76V.8zM0 286.98v-78.234h65.883v78.234zM90.59 286.98v-78.234h156.47v78.234zM271.77 286.98v-78.234h156.47v78.234zM452.94 286.98v-78.234h156.47v78.234z"/></g></svg>